<?xml version="1.0" standalone="no"?>
<!DOCTYPE svg PUBLIC "-//W3C//DTD SVG 20010904//EN"
 "http://www.w3.org/TR/2001/REC-SVG-20010904/DTD/svg10.dtd">
<svg version="1.0" xmlns="http://www.w3.org/2000/svg"
 width="500.000000pt" height="500.000000pt" viewBox="0 0 500.000000 500.000000"
 preserveAspectRatio="xMidYMid meet">
<metadata>
Created by potrace 1.11, written by Peter Selinger 2001-2013
</metadata>
<g transform="translate(0.000000,500.000000) scale(0.100000,-0.100000)"
fill="#000000" stroke="none">
<path d="M1830 3818 c0 -11 8 -50 25 -125 5 -21 3 -22 -20 -13 -23 9 -24 8
-16 -8 22 -41 94 -81 148 -83 15 0 22 -3 16 -6 -30 -12 -8 -19 55 -19 58 1 67
-1 64 -16 -2 -13 4 -18 20 -19 13 -1 28 -2 33 -4 6 -1 20 -3 31 -3 12 -1 24
-10 26 -20 4 -14 13 -18 41 -16 28 2 35 0 30 -11 -5 -14 6 -17 52 -15 16 1 73
-36 92 -59 28 -32 29 -19 8 76 -23 100 -22 99 -44 79 -18 -17 -20 -15 -51 28
-31 46 -50 58 -50 32 0 -31 -22 -26 -59 13 -43 46 -49 48 -66 25 -10 -15 -19
-11 -74 30 -62 45 -86 51 -74 19 7 -19 1 -16 -61 29 -42 30 -62 29 -46 -3 6
-10 8 -19 5 -19 -2 0 -19 25 -36 55 -32 57 -49 76 -49 53z"/>
<path d="M3151 3794 c-12 -19 -21 -38 -21 -42 0 -4 -8 -16 -17 -27 -15 -19
-15 -19 -9 8 4 15 4 27 0 27 -3 0 -28 -16 -54 -35 -47 -34 -49 -35 -52 -14 -3
20 -7 19 -72 -25 -67 -46 -68 -47 -82 -27 -14 19 -16 19 -56 -24 -46 -50 -53
-54 -61 -25 -8 30 -19 25 -52 -25 -29 -42 -45 -56 -45 -36 0 5 -6 11 -14 14
-14 5 -30 -47 -52 -160 -6 -30 -2 -29 38 11 25 25 47 36 81 41 27 4 47 13 47
20 0 7 8 12 18 12 53 0 64 3 58 18 -3 10 1 15 12 16 52 2 102 18 99 32 -1 8
16 12 61 12 47 -1 61 2 58 12 -4 8 3 13 19 13 42 0 104 31 127 63 l22 30 -23
-6 c-20 -5 -21 -3 -17 26 12 69 18 127 13 127 -3 0 -14 -16 -26 -36z"/>
<path d="M1502 3803 c22 -26 44 -73 53 -112 8 -36 4 -37 -48 -16 -18 7 -18 6
-2 -31 9 -22 31 -63 50 -91 39 -59 42 -68 20 -59 -9 3 -15 0 -15 -8 0 -19 75
-85 121 -105 37 -17 38 -18 17 -28 -20 -9 -19 -10 19 -26 41 -16 134 -17 182
-2 16 6 22 5 17 -3 -13 -21 10 -20 83 4 88 29 104 29 127 7 10 -10 31 -19 48
-19 17 -1 49 -2 71 -3 30 -1 36 -4 25 -11 -13 -9 -13 -11 0 -20 8 -5 20 -10
27 -10 7 0 37 -21 68 -46 67 -54 85 -49 85 24 0 54 -28 117 -70 157 l-30 29
-16 -23 -16 -23 -37 35 c-32 30 -108 67 -138 67 -6 0 -9 -9 -6 -20 7 -25 -1
-25 -36 1 -18 13 -45 21 -77 22 -43 2 -49 0 -46 -17 3 -18 2 -18 -21 -3 -13 8
-50 23 -82 33 -56 16 -59 16 -72 -2 -15 -21 -11 -25 -54 54 -29 53 -36 60 -45
47 -10 -14 -15 -7 -30 37 -10 29 -17 56 -16 61 4 14 -16 7 -22 -8 -9 -25 -22
-17 -41 25 -10 23 -34 54 -52 70 -37 33 -66 41 -41 13z"/>
<path d="M3473 3792 c-17 -15 -41 -46 -52 -69 -24 -48 -28 -50 -46 -26 -11 15
-15 9 -31 -46 -15 -55 -19 -61 -30 -46 -14 19 -19 13 -68 -80 -24 -45 -27 -48
-32 -27 -6 20 -11 22 -38 17 -17 -4 -56 -17 -87 -29 -52 -21 -56 -21 -51 -4 3
14 -2 18 -25 18 -36 0 -93 -19 -111 -37 -18 -18 -35 -16 -28 3 8 21 -3 37 -17
26 -7 -5 -33 -16 -58 -26 -25 -9 -59 -31 -74 -48 l-28 -31 -17 23 -18 23 -31
-32 c-42 -43 -61 -82 -66 -140 -3 -40 0 -52 16 -67 20 -18 21 -17 51 15 17 18
53 43 79 56 37 16 45 25 37 33 -13 13 -15 13 82 16 40 1 55 5 55 15 0 21 45
23 101 5 97 -31 116 -34 110 -17 -5 12 -2 14 16 8 80 -25 246 -3 205 28 -15
11 -12 14 23 31 22 11 59 38 83 60 40 38 41 40 20 46 -22 5 -22 5 9 50 35 52
72 129 65 137 -3 2 -15 0 -26 -7 -12 -6 -25 -8 -30 -5 -12 7 6 72 28 105 41
59 36 66 -16 22z"/>
<path d="M903 3029 c0 -214 4 -389 9 -390 4 0 51 -1 103 -1 52 0 101 1 109 1
11 1 14 21 14 99 0 53 1 112 1 130 l1 33 93 -3 92 -3 0 -123 c0 -82 4 -125 12
-130 12 -8 210 -8 218 0 4 4 8 488 6 725 l-1 51 -115 0 c-63 0 -115 -3 -116
-6 -1 -4 -2 -69 -3 -144 0 -75 -4 -139 -8 -143 -8 -9 -166 -10 -174 -2 -3 3
-7 70 -8 149 l-1 143 -116 1 -116 1 0 -388z"/>
<path d="M1675 3286 c6 -46 5 -48 -11 -35 -16 13 -17 9 -11 -53 6 -67 2 -79
-20 -57 -9 9 -11 5 -8 -12 19 -138 19 -140 0 -133 -15 6 -16 4 -6 -13 15 -29
82 -117 95 -125 18 -12 25 5 17 42 -4 20 -4 44 0 55 11 30 10 47 -2 39 -12 -7
-7 16 17 74 12 30 10 36 -8 33 -11 -1 -10 2 7 51 7 24 12 52 10 63 -2 11 -4
24 -4 28 -1 5 -6 5 -11 2 -6 -3 -18 8 -28 25 -36 66 -43 69 -37 16z"/>
<path d="M3333 3318 c-4 -7 -15 -26 -24 -43 -9 -16 -22 -30 -29 -30 -25 0 -22
-61 6 -129 6 -16 4 -18 -9 -13 -14 5 -16 2 -11 -21 4 -15 13 -39 20 -54 16
-30 18 -41 6 -35 -4 3 -7 -26 -6 -64 0 -38 4 -70 10 -71 12 -3 104 112 104
129 0 7 -6 12 -12 11 -7 -2 -12 2 -11 8 6 34 12 147 7 137 -15 -32 -23 -7 -18
54 5 61 4 65 -12 53 -15 -13 -16 -10 -10 33 7 48 4 57 -11 35z"/>
<path d="M3670 3179 l0 -109 -110 0 -111 0 3 -107 3 -108 105 0 105 0 3 -108
c2 -75 6 -107 15 -108 83 -6 190 -2 198 7 4 6 8 52 8 104 0 56 4 96 10 100 6
3 52 6 101 5 54 -1 94 3 99 9 4 6 8 55 9 109 l0 97 -109 0 c-80 0 -109 3 -109
13 -1 6 -2 55 -3 107 l-2 95 -107 1 -108 2 0 -109z m116 -67 c0 -4 4 -27 9
-52 5 -25 7 -55 6 -67 -3 -28 4 -29 32 -2 25 23 81 55 75 42 -20 -43 -34 -62
-65 -85 l-35 -27 34 0 c39 1 65 -4 75 -15 4 -4 -18 -6 -49 -4 l-57 3 27 -23
27 -22 -30 12 c-16 6 -35 16 -42 21 -7 5 -24 2 -42 -7 -38 -20 -52 -20 -26 0
l20 16 -20 -2 c-40 -4 -85 0 -85 8 0 8 36 14 84 14 l29 0 -30 19 c-27 17 -91
99 -78 99 10 0 83 -49 90 -60 13 -21 20 -9 19 31 -1 47 15 123 25 114 3 -4 6
-10 7 -13z"/>
<path d="M3786 2943 c-6 -14 -5 -15 5 -6 7 7 10 15 7 18 -3 3 -9 -2 -12 -12z"/>
<path d="M1996 3249 c-93 -28 -159 -87 -203 -179 -36 -75 -37 -175 -3 -243
120 -241 487 -248 607 -12 93 182 -30 409 -238 440 -82 12 -108 11 -163 -6z
m202 -224 c52 -56 42 -145 -22 -184 -63 -38 -121 -34 -179 13 -28 22 -46 84
-36 119 20 69 103 114 174 95 17 -4 45 -23 63 -43z"/>
<path d="M2850 3258 c-107 -16 -221 -117 -253 -224 -19 -65 -14 -154 13 -208
28 -58 93 -121 159 -153 48 -23 69 -27 146 -28 77 0 98 4 145 26 78 36 124 80
159 150 26 53 30 69 27 132 -3 86 -28 147 -84 205 -74 77 -197 117 -312 100z
m150 -216 c37 -27 51 -62 47 -108 -5 -53 -32 -90 -77 -106 -53 -19 -71 -18
-117 3 -63 30 -89 81 -72 143 25 92 139 127 219 68z"/>
<path d="M2488 2855 c-4 -4 -4 -28 -1 -53 5 -37 3 -47 -12 -58 -18 -13 -17
-14 8 -14 30 0 36 -20 12 -40 -11 -9 -12 -16 -2 -31 12 -20 5 -31 -28 -42 -6
-2 -5 -10 3 -20 17 -20 7 -54 -19 -62 -10 -4 -17 -10 -14 -15 8 -12 66 9 93
34 13 11 27 19 30 16 4 -3 8 12 10 33 2 20 7 37 12 37 5 0 7 27 6 61 -3 55 -7
65 -47 111 -24 27 -47 47 -51 43z"/>
<path d="M1675 2588 c-96 -37 -104 -43 -75 -58 22 -12 22 -12 -18 -39 -34 -22
-112 -109 -112 -124 0 -3 9 -7 21 -10 20 -5 19 -7 -9 -64 -29 -58 -72 -173
-72 -194 0 -6 9 -8 20 -4 18 6 20 3 16 -37 -3 -24 -5 -43 -6 -43 -1 0 -4 -33
-7 -73 -6 -87 11 -147 33 -117 11 14 14 15 18 4 2 -8 12 -39 22 -69 9 -30 34
-90 54 -134 31 -64 39 -75 45 -57 3 11 10 21 14 21 9 0 131 -196 131 -210 0
-4 9 -15 20 -25 19 -17 20 -17 21 1 1 10 1 22 0 27 0 4 5 7 12 7 40 -1 80 -78
83 -159 3 -70 11 -80 32 -37 19 38 16 113 -7 180 -12 33 -19 61 -17 63 2 3 13
0 24 -6 69 -37 -71 126 -162 188 -52 36 -58 61 -21 81 14 7 25 16 25 19 0 3
-21 17 -47 31 -84 45 -149 114 -122 130 10 7 8 25 -10 87 -37 131 -37 123 -8
123 l26 0 -3 106 c-3 88 -1 107 12 112 9 3 18 0 20 -6 8 -26 21 -9 37 46 8 31
20 68 26 81 l10 24 23 -22 c25 -24 56 -30 37 -8 -15 19 -20 77 -9 107 5 14 21
34 35 46 29 23 24 44 -10 44 -12 -1 -58 -15 -102 -32z"/>
<path d="M3227 2613 c-13 -12 -7 -32 12 -38 10 -3 24 -18 30 -33 13 -31 12
-102 -1 -102 -4 0 -8 -7 -8 -15 0 -17 16 -20 25 -5 3 5 15 14 25 20 18 9 21 4
41 -62 23 -79 33 -96 43 -79 4 6 14 11 22 11 13 0 15 -16 12 -110 l-4 -110 28
0 c15 0 28 -1 28 -2 0 -2 -14 -46 -30 -98 -26 -82 -28 -97 -15 -106 12 -9 12
-14 -2 -35 -25 -36 -73 -75 -120 -99 -24 -12 -43 -24 -43 -28 0 -3 12 -17 28
-29 l27 -23 -39 -33 c-72 -59 -175 -161 -185 -185 -14 -30 -14 -39 1 -24 31
31 35 10 11 -65 -28 -89 -26 -155 7 -187 19 -19 19 -19 16 30 -3 52 15 111 46
156 22 32 48 37 48 9 0 -46 22 -24 89 89 39 65 76 122 81 125 6 4 14 -4 18
-16 7 -18 14 -10 50 64 23 47 49 113 58 146 16 57 19 60 34 46 16 -15 18 -12
28 27 6 24 9 57 7 73 -13 129 -17 161 -22 168 -3 5 3 8 13 7 11 -1 22 -2 26
-1 10 1 -37 131 -74 205 -28 56 -29 58 -9 53 23 -6 29 14 11 36 -50 62 -78 90
-103 104 l-30 15 22 17 22 17 -28 13 c-56 26 -156 61 -173 61 -9 0 -20 -3 -23
-7z"/>
<path d="M1790 2350 c0 -7 -8 -19 -17 -26 -17 -13 -17 -15 0 -28 15 -11 16
-24 11 -87 -11 -133 -6 -189 16 -189 27 0 38 13 31 33 -4 12 -7 38 -7 57 l2
35 62 3 c34 2 62 7 62 12 0 17 -41 31 -77 28 -43 -3 -48 6 -39 67 6 39 11 45
39 51 18 5 50 9 72 9 30 0 41 4 43 18 4 21 -10 23 -118 16 -25 -1 -53 1 -62 5
-12 5 -18 4 -18 -4z"/>
<path d="M2152 2343 c-30 -27 -66 -98 -102 -205 -33 -100 -33 -118 1 -118 14
0 19 7 19 25 0 31 21 41 93 44 49 2 57 0 57 -16 0 -31 16 -46 39 -38 16 5 20
12 15 27 -4 13 -1 24 7 29 11 7 11 13 -2 36 -9 15 -19 48 -23 73 -11 76 -26
120 -47 141 -23 23 -31 24 -57 2z m46 -95 c6 -29 13 -67 16 -84 l5 -32 -57 -5
c-31 -2 -60 -3 -64 -1 -13 8 64 174 81 174 4 0 13 -24 19 -52z"/>
<path d="M2341 2351 c-12 -8 -18 -274 -7 -309 10 -30 53 -27 48 3 -7 47 -14
185 -9 185 2 0 12 -24 21 -52 45 -143 87 -175 124 -95 11 23 23 57 27 75 11
53 20 37 22 -39 1 -58 5 -76 22 -92 27 -28 49 -11 31 24 -9 15 -11 51 -6 118
7 111 11 138 26 156 8 9 6 15 -7 20 -26 11 -58 14 -70 7 -11 -8 -29 -59 -38
-107 -9 -55 -34 -138 -43 -147 -14 -14 -42 54 -59 146 -9 44 -19 88 -23 96 -8
16 -41 22 -59 11z"/>
<path d="M2805 2351 c-3 -6 -8 -70 -11 -143 -5 -127 -4 -136 17 -162 21 -27
25 -28 91 -24 78 6 104 21 74 43 -13 10 -25 11 -43 4 -13 -5 -37 -9 -53 -9
-38 0 -44 22 -35 137 4 48 7 99 6 112 -2 38 -31 65 -46 42z"/>
<path d="M3018 2352 c-11 -2 -18 -13 -18 -25 0 -27 55 -145 80 -172 18 -20 18
-21 -6 -70 -26 -55 -25 -75 5 -75 21 0 31 18 102 189 21 51 46 99 55 106 18
13 13 45 -6 45 -19 0 -59 -50 -84 -106 -14 -30 -30 -54 -36 -54 -17 0 -54 91
-52 126 3 33 -9 43 -40 36z"/>
<path d="M2700 2336 c-8 -11 -11 -56 -8 -151 3 -119 5 -138 21 -150 27 -19 50
-9 36 16 -11 22 -11 172 1 239 6 31 5 47 -3 52 -18 12 -33 9 -47 -6z"/>
<path d="M2277 1844 c-3 -3 -22 -6 -41 -6 -36 0 -57 -15 -38 -27 6 -3 7 -24 3
-51 -8 -58 -3 -90 14 -90 10 0 12 9 8 34 -5 33 -4 34 26 32 29 -2 58 12 32 15
-6 1 -15 3 -21 4 -5 1 -16 3 -24 4 -9 1 -12 10 -8 26 5 31 13 36 52 37 24 1
28 4 19 15 -13 15 -14 15 -22 7z"/>
<path d="M2530 1843 c-41 -12 -42 -13 -32 -26 12 -14 6 -53 -11 -74 -6 -9 -6
-13 2 -13 6 0 11 -13 11 -30 0 -21 5 -30 16 -30 12 0 15 7 12 25 -4 18 -1 25
10 25 8 0 30 -11 48 -25 37 -29 44 -30 44 -12 0 8 -11 20 -25 27 -28 15 -32
28 -11 36 19 7 29 53 16 69 -14 17 -61 33 -80 28z m58 -51 c3 -22 -40 -58 -57
-48 -9 6 -7 43 4 73 7 20 49 -1 53 -25z"/>
<path d="M2375 1817 c-12 -19 -55 -131 -55 -144 0 -1 7 -3 15 -3 8 0 15 7 15
15 0 8 3 15 8 16 4 0 19 3 35 5 18 3 29 0 33 -11 10 -26 31 -17 28 13 -14 125
-42 165 -79 109z m43 -44 c9 -40 9 -41 -20 -45 -16 -3 -31 -2 -33 2 -5 8 34
95 40 89 2 -3 8 -23 13 -46z"/>
<path d="M2652 1755 c-2 -71 1 -85 13 -85 13 0 15 10 11 50 -5 53 7 60 19 13
7 -31 23 -53 37 -53 5 0 17 19 27 43 17 38 19 39 16 12 -3 -30 10 -65 23 -65
4 0 7 34 6 75 0 41 3 75 8 75 5 0 6 5 3 10 -3 6 -15 10 -26 10 -18 0 -27 -11
-33 -42 -15 -73 -20 -88 -30 -85 -6 2 -17 31 -24 65 -10 46 -18 62 -31 62 -14
0 -17 -13 -19 -85z"/>
<path d="M3156 1789 c-23 -25 -34 -30 -62 -27 -30 3 -33 2 -28 -17 4 -18 -5
-26 -70 -54 -42 -18 -76 -37 -76 -42 0 -4 8 -12 18 -18 14 -8 15 -13 4 -28 -6
-10 -15 -25 -19 -33 -3 -8 -15 -27 -25 -42 -23 -33 -23 -51 0 -44 15 5 17 -3
17 -89 0 -119 16 -142 35 -48 16 83 26 113 40 113 5 0 10 -10 10 -22 1 -22 1
-23 15 -4 8 11 15 29 15 40 0 12 5 38 11 60 8 28 14 35 22 27 18 -18 26 -13
52 39 25 49 45 65 45 35 0 -30 16 -14 37 35 21 50 20 91 -4 134 -8 15 -12 13
-37 -15z"/>
<path d="M1821 1779 c-15 -44 -14 -60 9 -115 19 -43 22 -45 34 -29 12 17 15
14 41 -31 16 -27 30 -50 31 -52 1 -2 11 1 22 7 21 11 26 0 39 -89 7 -46 11
-49 32 -21 17 23 18 22 41 -74 28 -119 43 -109 42 26 0 72 2 87 14 82 22 -8
17 16 -20 82 -34 60 -35 61 -14 74 19 12 16 15 -53 47 -41 18 -78 35 -84 37
-6 2 -4 11 4 20 14 18 11 20 -31 17 -18 -1 -37 8 -53 24 -33 33 -41 33 -54 -5z"/>
</g>
</svg>
